<?xml version="1.0" standalone="no"?>
<!DOCTYPE svg PUBLIC "-//W3C//DTD SVG 20010904//EN"
 "http://www.w3.org/TR/2001/REC-SVG-20010904/DTD/svg10.dtd">
<svg version="1.0" xmlns="http://www.w3.org/2000/svg"
 width="180.000000pt" height="180.000000pt" viewBox="0 0 180.000000 180.000000"
 preserveAspectRatio="xMidYMid meet">

<g transform="translate(0.000000,180.000000) scale(0.100000,-0.100000)"
fill="#000000" stroke="none">
<path d="M795 1753 c-32 -9 -95 -63 -95 -81 0 -10 -7 -26 -15 -36 -12 -16 -15
-57 -15 -197 l0 -176 31 -7 c17 -3 100 -6 184 -6 84 0 167 3 184 6 l31 7 0
191 c0 186 -1 193 -23 224 -48 64 -70 75 -170 78 -51 2 -101 0 -112 -3z"/>
<path d="M194 1101 c-61 -6 -78 -15 -122 -59 -23 -24 -44 -93 -44 -142 0 -46
21 -119 39 -137 11 -11 35 -29 55 -41 34 -21 45 -22 281 -22 233 0 247 -1 257
-19 6 -12 10 -111 10 -253 0 -246 2 -257 50 -323 40 -55 67 -65 169 -65 110 0
136 12 188 86 l28 39 0 462 c0 254 -4 465 -8 470 -10 9 -814 14 -903 4z"/>
<path d="M1250 1075 c-14 -37 -13 -348 2 -380 l11 -25 177 0 c146 0 180 3 190
15 7 8 20 15 29 15 20 0 48 31 73 80 20 39 26 194 7 205 -5 4 -14 17 -19 30
-5 13 -26 36 -46 52 l-37 28 -189 3 -188 3 -10 -26z"/>
</g>
</svg>
